<svg width="100" height="100" viewBox="0 0 100 100" fill="none" xmlns="http://www.w3.org/2000/svg">
<circle cx="50" cy="50" r="50" fill="#115E81"/>
<path d="M29.2524 54.1504L41.7093 47.4648C49.0411 43.2928 64.4868 34.7424 67.6153 33.9166C71.526 32.8844 76.7568 33.5139 78.4159 33.8876C80.0749 34.2614 83.371 36.7983 82.128 40.0333C80.7879 43.521 78.4708 45.0379 71.7628 48.243C65.0548 51.4482 64.3272 52.4707 62.8472 53.7391C61.6633 54.7538 60.7021 57.6557 60.3695 58.9798C60.0232 60.8644 59.0251 65.0898 57.8036 66.9147C56.2768 69.1958 53.1047 70.5427 51.6385 71.2506C50.1724 71.9585 49.1995 72.2436 47.8133 71.4864C46.7043 70.8806 46.3169 69.2608 46.2618 68.5267L46.8103 61.398C45.8393 61.9059 42.7657 63.5924 38.2393 66.2746C32.5813 69.6272 29.8006 69.342 27.7005 69.0469C25.6005 68.7518 23.2607 68.3879 19.6891 63.668C16.1175 58.9481 15.718 57.3454 16.2003 55.5854C16.6826 53.8253 18.3499 52.97 20.348 52.0556C22.3461 51.1413 25.3059 53.0686 27.0614 53.9832C28.4658 54.7148 28.8307 54.3372 29.2524 54.1504Z" fill="#115E81" stroke="#F4F5E6" stroke-width="3"/>
<path d="M57.0927 38.9707L41.1843 47.5734C39.4043 46.7821 35.564 45.072 34.4429 44.5624C33.0416 43.9253 29.6349 43.2023 29.6495 41.3148C29.664 39.4274 31.0063 39.0771 34.9359 36.824C38.0796 35.0216 41.616 35.1153 42.9913 35.3874L57.0927 38.9707Z" fill="#115E81" stroke="#F4F5E6" stroke-width="3"/>
</svg>
