<svg width="430" height="932" viewBox="0 0 430 932" fill="none" xmlns="http://www.w3.org/2000/svg">
<rect width="430" height="932" fill="url(#paint0_linear_45_997)"/>
<path d="M-114.708 706.182C-115.135 699.754 -123.081 707.432 -127 712.075V966H517V705.647L514.862 706.182C505.242 709.932 491.881 734.039 483.865 738.861C475.848 743.682 421.87 753.325 412.25 747.968C402.63 742.61 386.597 730.289 378.58 716.361C370.564 702.433 370.564 716.361 367.891 716.361C365.219 716.361 360.944 709.397 356.668 716.361C352.393 723.325 350.255 723.325 348.117 723.325C345.979 723.325 346.514 727.075 344.91 730.289C343.307 733.503 336.894 728.682 330.481 738.861C324.143 748.918 320.937 749.561 313.127 751.125L312.844 751.182C304.827 752.789 292.535 761.896 279.174 764.039C265.813 766.182 242.832 759.753 226.799 747.432C210.766 735.111 212.904 731.361 203.818 740.468C194.733 749.575 195.802 749.575 189.388 743.146C182.975 736.718 159.994 725.468 153.046 723.325C146.099 721.182 133.807 698.683 128.997 705.111C124.187 711.54 126.859 716.897 120.98 716.361C115.101 715.825 115.636 730.289 106.016 728.146C96.3959 726.004 96.3959 745.289 86.7759 736.182C79.08 728.896 74.662 731.361 73.4149 733.503C70.7428 736.718 63.0468 744.003 53.6407 747.432C41.883 751.717 19.971 752.789 -10.4921 751.717C-40.9552 750.646 -87.9859 720.647 -99.7436 706.182C-109.15 694.611 -110.789 699.575 -110.432 703.504C-111.679 707.075 -114.28 712.611 -114.708 706.182Z" fill="#C9E3AC" fill-opacity="0.4"/>
<path d="M-22.4484 371.59C-17.2621 339.021 9.3485 337.664 22.0055 341.056C25.0926 333.037 35.7121 316.444 53.4937 314.224C71.2752 312.003 82.5122 326.869 85.908 334.579C103.709 330.18 110.734 335.655 121.101 351.234C131.733 350.33 136.076 352.983 142.401 360.487C150.119 360.178 164.999 364.003 162.776 381.768C160.553 399.533 144.562 400.273 136.845 398.422C126.515 411.576 119.604 414.191 104.43 406.75C88.8783 418.501 80.1592 420.154 64.6072 406.75C49.8103 420.51 40.5139 421.532 22.0055 410.451C5.0266 411.068 -27.6347 404.159 -22.4484 371.59Z" fill="white" fill-opacity="0.7"/>
<path d="M284.126 543.279C285.96 525.822 299.41 519.926 305.906 519.16C319.373 497.089 329.396 492.973 354.051 503.081C356.519 493.953 372.393 487.003 382.709 487.003C393.864 486.813 405.636 497.339 410.221 504.23C415.571 501.55 429.709 496.65 443.464 498.488C457.22 500.325 465.244 514.566 467.537 521.457C479.764 522.223 503.531 529.267 500.78 551.318C498.029 573.369 476.708 574.288 466.391 571.991C464.098 578.116 456.303 590.826 443.464 592.664C430.626 594.501 422.066 586.538 419.392 582.327H401.051C397.612 589.218 387.295 603 373.539 603C359.783 603 351.759 591.515 349.466 585.773C328.94 588.158 319.649 585.315 310.491 566.248C300.939 565.866 282.292 560.736 284.126 543.279Z" fill="white" fill-opacity="0.7"/>
<path d="M265.398 231.929C259.622 229.032 258.659 221.064 258.9 217.442C254.086 216.718 245.325 211.503 248.791 196.436C252.257 181.369 264.676 180.983 270.453 182.673C270.212 178.568 272.33 169.345 282.728 165.289C293.125 161.232 303.427 163.598 307.278 165.289C310.647 162.633 319.986 157.465 330.384 158.045C340.781 158.624 347.713 169.876 349.879 175.43C357.341 174.222 372.408 176.733 372.985 196.436C373.563 216.138 356.859 221.547 348.435 221.788C347.232 225.169 342.37 232.364 332.55 234.103C322.73 235.841 316.424 231.447 314.498 229.032C311.37 231.688 303.234 237 295.725 237C288.215 237 282.006 231.688 279.84 229.032C277.433 231.205 271.175 234.827 265.398 231.929Z" fill="white" fill-opacity="0.7"/>
<path d="M301.027 232.669C300.185 203.971 318.922 199.61 328.395 201.017C333.267 189.16 339.192 186.08 355.763 187.301C355.763 180.971 360.815 167.888 381.025 166.2C401.235 164.512 414.007 173.937 417.867 178.861C432.927 173.522 439.386 176.809 449.445 187.301C459.269 187.653 479.128 193.209 479.97 212.623C480.812 232.036 463.48 238.296 454.708 238.999C443.026 254.976 433.836 258.738 413.656 257.99C401.735 269.824 395.051 270.181 383.131 257.99C369.651 266.943 361.384 267.616 344.184 253.77C330.15 258.694 301.87 261.367 301.027 232.669Z" fill="white" fill-opacity="0.7"/>
<path d="M-50.874 28.2785C-49.0399 10.8215 -35.5898 4.92596 -29.094 4.1603C-15.6266 -17.9112 -5.60401 -22.0272 19.0515 -11.9187C21.5187 -21.0474 37.3926 -27.9975 47.7094 -27.9975C58.8643 -28.1873 70.6358 -17.661 75.2211 -10.7701C80.5706 -13.4499 94.7085 -18.3501 108.464 -16.5125C122.22 -14.6749 130.244 -0.433653 132.537 6.45728C144.764 7.22294 168.531 14.267 165.78 36.318C163.029 58.3689 141.708 59.2878 131.391 56.9908C129.098 63.1161 121.303 75.826 108.464 77.6636C95.6256 79.5012 87.0664 71.5383 84.3916 67.3272H66.0505C62.6116 74.2181 52.2947 88 38.5389 88C24.783 88 16.7588 76.5151 14.4662 70.7727C-6.06033 73.1581 -15.3514 70.315 -24.5087 51.2484C-34.0613 50.8655 -52.7081 45.7356 -50.874 28.2785Z" fill="white" fill-opacity="0.7"/>
<path d="M-19 210.151C-1.66667 186.651 49.7 137.451 116.5 128.651C200 117.651 170.5 66.5 157 81C151.496 86.9121 141 102 170.5 116.5C194.1 128.1 228.5 73 248 73" stroke="#F4F5E6" stroke-dasharray="7 7"/>
<path d="M260.19 64.6287L265.895 61.5673C269.252 59.6569 276.324 55.7417 277.757 55.3635C279.548 54.8909 281.943 55.1791 282.703 55.3503C283.462 55.5214 284.972 56.6831 284.402 58.1644C283.789 59.7614 282.728 60.456 279.656 61.9237C276.584 63.3913 276.251 63.8596 275.574 64.4403C275.032 64.905 274.591 66.2338 274.439 66.8401C274.281 67.703 273.823 69.6379 273.264 70.4735C272.565 71.518 271.113 72.1348 270.441 72.4589C269.77 72.7831 269.324 72.9136 268.69 72.5669C268.182 72.2895 268.004 71.5478 267.979 71.2116L268.23 67.9474C267.786 68.18 266.378 68.9522 264.306 70.1804C261.715 71.7156 260.441 71.585 259.48 71.4498C258.518 71.3147 257.447 71.1481 255.811 68.9868C254.176 66.8256 253.993 66.0917 254.214 65.2858C254.435 64.4798 255.198 64.0882 256.113 63.6695C257.028 63.2508 258.383 64.1333 259.187 64.5521C259.83 64.8871 259.997 64.7142 260.19 64.6287Z" fill="#F4F5E6"/>
<path d="M273.038 57.3748L265.753 61.314C264.938 60.9516 263.18 60.1686 262.666 59.9352C262.025 59.6435 260.465 59.3125 260.471 58.4482C260.478 57.5839 261.093 57.4235 262.892 56.3918C264.332 55.5665 265.951 55.6094 266.581 55.734L273.038 57.3748Z" fill="#EFB0A1"/>
<path d="M31 758.946C24.6 754.146 7.66667 738.946 0 731.946V946.446H600C600.833 887.113 602 768.446 600 768.446C597.5 768.446 589 762.946 580.5 758.946C572 754.946 568.5 761.946 569.5 755.446C570.5 748.946 545.5 714.946 536 702.446C526.5 689.946 532.5 702.946 527 702.446C521.5 701.946 525 709.446 521.5 708.946C518 708.446 517 714.946 512 719.446C507 723.946 502 737.446 499 738.946C496 740.446 472.5 765.946 470.5 770.446C468.5 774.946 455.5 783.446 450 775.946C444.5 768.446 438.5 772.946 435 772.946C431.5 772.946 430 770.446 425 765.946C420 761.446 425 770.446 414 770.446C405.2 770.446 401.333 772.113 400.5 772.946C392 781.779 374.1 799.446 370.5 799.446H357.5C356.833 798.446 354.9 795.746 352.5 792.946C349.5 789.446 331.5 783.446 327 775.946C322.5 768.446 314.5 775.946 309 783.446C303.5 790.946 296.5 785.946 290.5 790.446C285.7 794.046 279.833 795.946 277.5 796.446L274.5 788.446C273 784.446 267.5 785.946 267 783.446C266.5 780.946 264 778.946 260.5 778.946C257 778.946 256 770.446 254 770.446C252 770.446 248.5 770.446 244.5 765.946C240.5 761.446 239.5 762.446 237 762.446C234.5 762.446 229 756.946 220 756.946C211 756.946 208.5 758.946 203 762.446C197.5 765.946 189 762.446 184 758.946C179 755.446 178 755.446 174.5 756.946C171 758.446 169 758.946 165 762.446C161 765.946 155.5 772.446 152.5 775.946C150.1 778.746 146.833 779.113 145.5 778.946C141.833 781.279 132.4 786.446 124 788.446C115.6 790.446 114.833 794.613 115.5 796.446H103C94 796.446 95.5 798.446 92.5 801.446C89.5 804.446 78 798.446 73 785.946C68 773.446 68.5 779.446 63 775.946C57.5 772.446 61 770.946 55 770.446C49 769.946 47.5 768.446 42 762.446C36.5 756.446 39 764.946 31 758.946Z" fill="#7C8C93"/>
<defs>
<linearGradient id="paint0_linear_45_997" x1="215" y1="0" x2="215" y2="932" gradientUnits="userSpaceOnUse">
<stop stop-color="#115E81"/>
<stop offset="1" stop-color="#86BBD8"/>
</linearGradient>
</defs>
</svg>
