<svg width="112" height="112" viewBox="0 0 112 112" fill="none" xmlns="http://www.w3.org/2000/svg">
<circle cx="56" cy="56" r="56" fill="#F4F5E6"/>
<path d="M35.2524 60.1504L47.7093 53.4648C55.0411 49.2928 70.4868 40.7424 73.6153 39.9166C77.526 38.8844 82.7568 39.5139 84.4159 39.8876C86.0749 40.2614 89.371 42.7983 88.128 46.0333C86.7879 49.521 84.4708 51.0379 77.7628 54.243C71.0548 57.4482 70.3272 58.4707 68.8472 59.7391C67.6633 60.7538 66.7021 63.6557 66.3695 64.9798C66.0232 66.8644 65.0251 71.0898 63.8036 72.9147C62.2768 75.1958 59.1047 76.5427 57.6385 77.2506C56.1724 77.9585 55.1995 78.2436 53.8133 77.4864C52.7043 76.8806 52.3169 75.2608 52.2618 74.5267L52.8103 67.398C51.8393 67.906 48.7657 69.5924 44.2393 72.2746C38.5813 75.6273 35.8006 75.342 33.7005 75.0469C31.6005 74.7518 29.2607 74.3879 25.6891 69.668C22.1175 64.9481 21.718 63.3454 22.2003 61.5854C22.6826 59.8253 24.3499 58.97 26.348 58.0556C28.3461 57.1413 31.3059 59.0686 33.0614 59.9832C34.4658 60.7148 34.8307 60.3372 35.2524 60.1504Z" fill="#F4F5E6" stroke="#115E81" stroke-width="3"/>
<path d="M63.0927 44.9707L47.1843 53.5734C45.4043 52.7821 41.564 51.072 40.4429 50.5624C39.0416 49.9253 35.6349 49.2023 35.6495 47.3148C35.664 45.4274 37.0063 45.0771 40.9359 42.824C44.0796 41.0216 47.616 41.1153 48.9913 41.3874L63.0927 44.9707Z" fill="#F4F5E6" stroke="#115E81" stroke-width="3"/>
</svg>
